<svg width="1108" height="777" viewBox="0 0 1108 777" fill="none" xmlns="http://www.w3.org/2000/svg">
<g clip-path="url(#clip0)">
<mask id="path-1-inside-1" fill="white">
<path fill-rule="evenodd" clip-rule="evenodd" d="M552.77 517.186L0.00100061 265.554L0.000976562 776.08L554.7 523.569L1107.45 774.443V265.437L552.77 517.186Z"/>
</mask>
<path fill-rule="evenodd" clip-rule="evenodd" d="M552.77 517.186L0.00100061 265.554L0.000976562 776.08L554.7 523.569L1107.45 774.443V265.437L552.77 517.186Z" fill="white"/>
<path d="M0.00100061 265.554L1.4576 262.354L-3.51471 260.091L-3.51471 265.554L0.00100061 265.554ZM552.77 517.186L551.314 520.386L552.768 521.048L554.223 520.388L552.77 517.186ZM0.000976562 776.08L-3.51474 776.08L-3.51474 781.543L1.45758 779.28L0.000976562 776.08ZM554.7 523.569L556.153 520.368L554.698 519.707L553.244 520.37L554.7 523.569ZM1107.45 774.443L1106 777.645L1110.96 779.9V774.443H1107.45ZM1107.45 265.437H1110.96V259.98L1106 262.235L1107.45 265.437ZM-1.4556 268.754L551.314 520.386L554.227 513.987L1.4576 262.354L-1.4556 268.754ZM3.51669 776.08L3.51671 265.554L-3.51471 265.554L-3.51474 776.08L3.51669 776.08ZM553.244 520.37L-1.45563 772.88L1.45758 779.28L556.157 526.769L553.244 520.37ZM553.247 526.771L1106 777.645L1108.9 771.242L556.153 520.368L553.247 526.771ZM1110.96 774.443V265.437H1103.93V774.443H1110.96ZM1106 262.235L551.317 513.985L554.223 520.388L1108.9 268.638L1106 262.235Z" fill="black" mask="url(#path-1-inside-1)"/>
<path d="M-1.60141 775.215L555.483 485.392L1112.57 775.215H-1.60141Z" fill="white" stroke="black" stroke-width="3.51571"/>
</g>
<defs>
<clipPath id="clip0">
<rect width="1107.45" height="776.972" fill="white"/>
</clipPath>
</defs>
</svg>
